# xmcd
# 
# Track frame offsets:
#     150
#     4509
#     17143
#     32793
#     47965
#     65371
#     79007
#     95647
#     113050
#     127306
#     142955
#     159476
#     174285
#     186338
#     204101
# 
# Disc length: 2766
# 
# Revision: 2
# Processed by: cddbd v1.5.2PL0 Copyright (c) Steve Scherf et al.
# Submitted via: fre:ac v1.0.17
# 
DISCID=c30acc0f
DTITLE=PESADO - Desde la Cantina (Edicion Especial) Vol. 2 
DYEAR=2011
DGENRE=Norteño
TTITLE0=La Redova de Gelardo 
TTITLE1=Quiero que Sepas 
TTITLE2=Las Tres Mujeres
TTITLE3=Como estar con Dios 
TTITLE4=Me Refiero a ti 
TTITLE5=Compre una Cantina 
TTITLE6=Recuerdame y Ven 
TTITLE7=Flor de Capomo
TTITLE8=Chiquilla Cariñosa
TTITLE9=Laurita Garza 
TTITLE10=Una Pagina Mas
TTITLE11=Somos Ajenos 
TTITLE12=Miel Amarga
TTITLE13=Alma, vida y corazón 
TTITLE14=La Redova de Gelardo  (Narracion de Eduardo Alvarado Ginesi)
EXTD=love4goodmusicmty@gmail.com
EXTT0=
EXTT1=
EXTT2=
EXTT3=
EXTT4=
EXTT5=
EXTT6=
EXTT7=
EXTT8=
EXTT9=
EXTT10=
EXTT11=
EXTT12=
EXTT13=
EXTT14=
PLAYORDER=
